<svg width="73" height="73" viewBox="0 0 73 73" fill="none" xmlns="http://www.w3.org/2000/svg">
<path d="M8.59659 1.18182V71H0.142046V1.18182H8.59659ZM63.7301 18.6364C63.321 15.1818 61.6619 12.5 58.7528 10.5909C55.8438 8.68182 52.2756 7.72727 48.0483 7.72727C44.9574 7.72727 42.2528 8.22727 39.9347 9.22727C37.6392 10.2273 35.8438 11.6023 34.5483 13.3523C33.2756 15.1023 32.6392 17.0909 32.6392 19.3182C32.6392 21.1818 33.0824 22.7841 33.9688 24.125C34.8778 25.4432 36.0369 26.5455 37.446 27.4318C38.8551 28.2955 40.3324 29.0114 41.8778 29.5795C43.4233 30.125 44.8438 30.5682 46.1392 30.9091L53.2301 32.8182C55.0483 33.2955 57.071 33.9545 59.2983 34.7955C61.5483 35.6364 63.696 36.7841 65.7415 38.2386C67.8097 39.6705 69.5142 41.5114 70.8551 43.7614C72.196 46.0114 72.8665 48.7727 72.8665 52.0455C72.8665 55.8182 71.8778 59.2273 69.9006 62.2727C67.946 65.3182 65.0824 67.7386 61.3097 69.5341C57.5597 71.3295 53.0028 72.2273 47.6392 72.2273C42.6392 72.2273 38.3097 71.4205 34.6506 69.8068C31.0142 68.1932 28.1506 65.9432 26.0597 63.0568C23.9915 60.1705 22.821 56.8182 22.5483 53H31.2756C31.5028 55.6364 32.3892 57.8182 33.9347 59.5455C35.5028 61.25 37.4801 62.5227 39.8665 63.3636C42.2756 64.1818 44.8665 64.5909 47.6392 64.5909C50.8665 64.5909 53.7642 64.0682 56.3324 63.0227C58.9006 61.9545 60.9347 60.4773 62.4347 58.5909C63.9347 56.6818 64.6847 54.4545 64.6847 51.9091C64.6847 49.5909 64.0369 47.7045 62.7415 46.25C61.446 44.7955 59.7415 43.6136 57.6278 42.7045C55.5142 41.7955 53.2301 41 50.7756 40.3182L42.1847 37.8636C36.7301 36.2955 32.4119 34.0568 29.2301 31.1477C26.0483 28.2386 24.4574 24.4318 24.4574 19.7273C24.4574 15.8182 25.5142 12.4091 27.6278 9.5C29.7642 6.56818 32.6278 4.29545 36.2188 2.68182C39.8324 1.04545 43.8665 0.22727 48.321 0.22727C52.821 0.22727 56.821 1.03409 60.321 2.64772C63.821 4.23863 66.5938 6.42045 68.6392 9.19318C70.7074 11.9659 71.7983 15.1136 71.9119 18.6364H63.7301Z" fill="url(#paint0_linear_103_24)"/>
<path d="M8.59659 1.18182V71H0.142046V1.18182H8.59659ZM63.7301 18.6364C63.321 15.1818 61.6619 12.5 58.7528 10.5909C55.8438 8.68182 52.2756 7.72727 48.0483 7.72727C44.9574 7.72727 42.2528 8.22727 39.9347 9.22727C37.6392 10.2273 35.8438 11.6023 34.5483 13.3523C33.2756 15.1023 32.6392 17.0909 32.6392 19.3182C32.6392 21.1818 33.0824 22.7841 33.9688 24.125C34.8778 25.4432 36.0369 26.5455 37.446 27.4318C38.8551 28.2955 40.3324 29.0114 41.8778 29.5795C43.4233 30.125 44.8438 30.5682 46.1392 30.9091L53.2301 32.8182C55.0483 33.2955 57.071 33.9545 59.2983 34.7955C61.5483 35.6364 63.696 36.7841 65.7415 38.2386C67.8097 39.6705 69.5142 41.5114 70.8551 43.7614C72.196 46.0114 72.8665 48.7727 72.8665 52.0455C72.8665 55.8182 71.8778 59.2273 69.9006 62.2727C67.946 65.3182 65.0824 67.7386 61.3097 69.5341C57.5597 71.3295 53.0028 72.2273 47.6392 72.2273C42.6392 72.2273 38.3097 71.4205 34.6506 69.8068C31.0142 68.1932 28.1506 65.9432 26.0597 63.0568C23.9915 60.1705 22.821 56.8182 22.5483 53H31.2756C31.5028 55.6364 32.3892 57.8182 33.9347 59.5455C35.5028 61.25 37.4801 62.5227 39.8665 63.3636C42.2756 64.1818 44.8665 64.5909 47.6392 64.5909C50.8665 64.5909 53.7642 64.0682 56.3324 63.0227C58.9006 61.9545 60.9347 60.4773 62.4347 58.5909C63.9347 56.6818 64.6847 54.4545 64.6847 51.9091C64.6847 49.5909 64.0369 47.7045 62.7415 46.25C61.446 44.7955 59.7415 43.6136 57.6278 42.7045C55.5142 41.7955 53.2301 41 50.7756 40.3182L42.1847 37.8636C36.7301 36.2955 32.4119 34.0568 29.2301 31.1477C26.0483 28.2386 24.4574 24.4318 24.4574 19.7273C24.4574 15.8182 25.5142 12.4091 27.6278 9.5C29.7642 6.56818 32.6278 4.29545 36.2188 2.68182C39.8324 1.04545 43.8665 0.22727 48.321 0.22727C52.821 0.22727 56.821 1.03409 60.321 2.64772C63.821 4.23863 66.5938 6.42045 68.6392 9.19318C70.7074 11.9659 71.7983 15.1136 71.9119 18.6364H63.7301Z" fill="black" fill-opacity="0.2"/>
<path d="M8.59659 1.18182H9.59659V0.181816H8.59659V1.18182ZM8.59659 71V72H9.59659V71H8.59659ZM0.142046 71H-0.857954V72H0.142046V71ZM0.142046 1.18182V0.181816H-0.857954V1.18182H0.142046ZM7.59659 1.18182V71H9.59659V1.18182H7.59659ZM8.59659 70H0.142046V72H8.59659V70ZM1.14205 71V1.18182H-0.857954V71H1.14205ZM0.142046 2.18182H8.59659V0.181816H0.142046V2.18182ZM63.7301 18.6364L62.7371 18.754L62.8415 19.6364H63.7301V18.6364ZM58.7528 10.5909L58.2042 11.427L58.2042 11.427L58.7528 10.5909ZM39.9347 9.22727L39.5386 8.30905L39.5353 8.31049L39.9347 9.22727ZM34.5483 13.3523L33.7445 12.7573L33.7396 12.7641L34.5483 13.3523ZM33.9688 24.125L33.1345 24.6764L33.14 24.6846L33.1455 24.6927L33.9688 24.125ZM37.446 27.4318L36.9135 28.2783L36.9235 28.2844L37.446 27.4318ZM41.8778 29.5795L41.5327 30.5182L41.545 30.5225L41.8778 29.5795ZM46.1392 30.9091L46.3992 29.9435L46.3937 29.942L46.1392 30.9091ZM53.2301 32.8182L52.9701 33.7838L52.9762 33.7854L53.2301 32.8182ZM59.2983 34.7955L58.9451 35.731L58.9482 35.7322L59.2983 34.7955ZM65.7415 38.2386L65.1619 39.0537L65.1723 39.0608L65.7415 38.2386ZM70.8551 43.7614L71.7141 43.2494L71.7141 43.2494L70.8551 43.7614ZM69.9006 62.2727L69.0618 61.7282L69.059 61.7326L69.9006 62.2727ZM61.3097 69.5341L60.8799 68.6311L60.8778 68.6321L61.3097 69.5341ZM34.6506 69.8068L34.245 70.7209L34.2471 70.7218L34.6506 69.8068ZM26.0597 63.0568L25.2468 63.6393L25.2498 63.6435L26.0597 63.0568ZM22.5483 53V52H21.4743L21.5508 53.0712L22.5483 53ZM31.2756 53L32.2719 52.9141L32.1931 52H31.2756V53ZM33.9347 59.5455L33.1893 60.2123L33.1987 60.2225L33.9347 59.5455ZM39.8665 63.3636L39.5341 64.3069L39.5449 64.3105L39.8665 63.3636ZM56.3324 63.0227L56.7094 63.949L56.7164 63.946L56.3324 63.0227ZM62.4347 58.5909L63.2174 59.2133L63.221 59.2087L62.4347 58.5909ZM62.7415 46.25L63.4882 45.5849L63.4882 45.5849L62.7415 46.25ZM57.6278 42.7045L57.2327 43.6232L57.2327 43.6232L57.6278 42.7045ZM50.7756 40.3182L50.5008 41.2797L50.5079 41.2817L50.7756 40.3182ZM42.1847 37.8636L41.9084 38.8247L41.9099 38.8252L42.1847 37.8636ZM29.2301 31.1477L28.5553 31.8858L28.5553 31.8858L29.2301 31.1477ZM27.6278 9.5L26.8196 8.91108L26.8188 8.9122L27.6278 9.5ZM36.2188 2.68182L36.6286 3.59396L36.6313 3.59277L36.2188 2.68182ZM60.321 2.64772L59.9023 3.55587L59.9072 3.55809L60.321 2.64772ZM68.6392 9.19318L67.8345 9.78683L67.8376 9.79107L68.6392 9.19318ZM71.9119 18.6364V19.6364H72.9447L72.9114 18.6041L71.9119 18.6364ZM64.7232 18.5188C64.2793 14.7708 62.4575 11.826 59.3015 9.75486L58.2042 11.427C60.8664 13.174 62.3627 15.5929 62.7371 18.754L64.7232 18.5188ZM59.3015 9.75486C56.1973 7.71775 52.4282 6.72727 48.0483 6.72727V8.72727C52.1229 8.72727 55.4902 9.64588 58.2042 11.427L59.3015 9.75486ZM48.0483 6.72727C44.8509 6.72727 42.0065 7.24444 39.5386 8.30906L40.3308 10.1455C42.4991 9.2101 45.0638 8.72727 48.0483 8.72727V6.72727ZM39.5353 8.31049C37.1036 9.36984 35.1591 10.8465 33.7446 12.7573L35.352 13.9472C36.5284 12.3581 38.1748 11.0847 40.334 10.1441L39.5353 8.31049ZM33.7396 12.7641C32.3387 14.6903 31.6392 16.8862 31.6392 19.3182H33.6392C33.6392 17.2956 34.2125 15.5142 35.357 13.9404L33.7396 12.7641ZM31.6392 19.3182C31.6392 21.3459 32.1236 23.1471 33.1345 24.6764L34.803 23.5736C34.0411 22.4211 33.6392 21.0178 33.6392 19.3182H31.6392ZM33.1455 24.6927C34.1347 26.127 35.3943 27.3226 36.9136 28.2783L37.9785 26.5854C36.6796 25.7683 35.621 24.7593 34.792 23.5573L33.1455 24.6927ZM36.9235 28.2844C38.3885 29.1824 39.9252 29.9271 41.5328 30.5181L42.2229 28.641C40.7395 28.0956 39.3217 27.4085 37.9686 26.5792L36.9235 28.2844ZM41.545 30.5225C43.1108 31.0752 44.5578 31.527 45.8847 31.8762L46.3937 29.942C45.1297 29.6094 43.7358 29.1748 42.2107 28.6366L41.545 30.5225ZM45.8792 31.8747L52.9701 33.7838L53.4901 31.8526L46.3992 29.9435L45.8792 31.8747ZM52.9762 33.7854C54.7533 34.2519 56.7422 34.8993 58.9451 35.731L59.6515 33.8599C57.3998 33.0098 55.3433 32.339 53.484 31.8509L52.9762 33.7854ZM58.9482 35.7322C61.1132 36.5413 63.1842 37.6472 65.162 39.0536L66.321 37.4237C64.2079 35.921 61.9834 34.7314 59.6484 33.8587L58.9482 35.7322ZM65.1723 39.0608C67.1179 40.4078 68.7254 42.1411 69.9961 44.2733L71.7141 43.2494C70.303 40.8817 68.5014 38.9331 66.3107 37.4164L65.1723 39.0608ZM69.9961 44.2733C71.2243 46.3342 71.8665 48.9084 71.8665 52.0455H73.8665C73.8665 48.6371 73.1677 45.6885 71.7141 43.2494L69.9961 44.2733ZM71.8665 52.0455C71.8665 55.6329 70.9296 58.8514 69.0618 61.7282L70.7393 62.8173C72.8261 59.6032 73.8665 56.0035 73.8665 52.0455H71.8665ZM69.059 61.7326C67.22 64.598 64.5108 66.9032 60.8799 68.6311L61.7394 70.4371C65.654 68.5741 68.6721 66.0383 70.7422 62.8129L69.059 61.7326ZM60.8778 68.6321C57.2958 70.3472 52.8952 71.2273 47.6392 71.2273V73.2273C53.1105 73.2273 57.8235 72.3119 61.7415 70.436L60.8778 68.6321ZM47.6392 71.2273C42.7445 71.2273 38.5584 70.4372 35.0541 68.8918L34.2471 70.7218C38.0609 72.4037 42.534 73.2273 47.6392 73.2273V71.2273ZM35.0562 68.8928C31.5619 67.3422 28.8453 65.1976 26.8695 62.4702L25.2498 63.6435C27.4559 66.6888 30.4665 69.0442 34.245 70.7209L35.0562 68.8928ZM26.8725 62.4744C24.9203 59.7498 23.8064 56.5777 23.5458 52.9288L21.5508 53.0712C21.8357 57.0587 23.0627 60.5911 25.2468 63.6393L26.8725 62.4744ZM22.5483 54H31.2756V52H22.5483V54ZM30.2793 53.0859C30.5224 55.906 31.4796 58.3013 33.1894 60.2122L34.6799 58.8787C33.2988 57.3351 32.4833 55.3667 32.2719 52.9141L30.2793 53.0859ZM33.1987 60.2225C34.8877 62.0583 37.0081 63.4167 39.5341 64.3068L40.1988 62.4205C37.9522 61.6288 36.118 60.4417 34.6706 58.8684L33.1987 60.2225ZM39.5449 64.3105C42.0664 65.1669 44.7669 65.5909 47.6392 65.5909V63.5909C44.9661 63.5909 42.4847 63.1967 40.1881 62.4168L39.5449 64.3105ZM47.6392 65.5909C50.9748 65.5909 54.0036 65.0504 56.7094 63.9489L55.9554 62.0965C53.5248 63.0859 50.7581 63.5909 47.6392 63.5909V65.5909ZM56.7164 63.946C59.4165 62.823 61.5968 61.2513 63.2174 59.2133L61.652 57.9685C60.2725 59.7033 58.3846 61.0861 55.9484 62.0994L56.7164 63.946ZM63.221 59.2087C64.8665 57.1145 65.6847 54.6669 65.6847 51.9091H63.6847C63.6847 54.2422 63.0029 56.2491 61.6483 57.9731L63.221 59.2087ZM65.6847 51.9091C65.6847 49.3948 64.9768 47.2563 63.4882 45.5849L61.9947 46.9151C63.0971 48.1528 63.6847 49.787 63.6847 51.9091H65.6847ZM63.4882 45.5849C62.0795 44.0031 60.2468 42.7424 58.023 41.7859L57.2327 43.6232C59.2361 44.4849 60.8126 45.5878 61.9947 46.9151L63.4882 45.5849ZM58.023 41.7859C55.8638 40.8572 53.5367 40.0473 51.0432 39.3547L50.5079 41.2817C52.9236 41.9527 55.1646 42.7337 57.2327 43.6232L58.023 41.7859ZM51.0503 39.3567L42.4594 36.9021L41.9099 38.8252L50.5008 41.2797L51.0503 39.3567ZM42.461 36.9026C37.1096 35.3641 32.9427 33.1871 29.9049 30.4097L28.5553 31.8858C31.8812 34.9265 36.3506 37.2268 41.9084 38.8247L42.461 36.9026ZM29.9049 30.4097C26.9505 27.7085 25.4574 24.1797 25.4574 19.7273H23.4574C23.4574 24.684 25.1461 28.7687 28.5553 31.8858L29.9049 30.4097ZM25.4574 19.7273C25.4574 16.01 26.4583 12.811 28.4369 10.0878L26.8188 8.9122C24.5701 12.0072 23.4574 15.6264 23.4574 19.7273H25.4574ZM28.436 10.0889C30.4614 7.30948 33.1824 5.14257 36.6286 3.59395L35.8089 1.76968C32.0733 3.44833 29.067 5.82688 26.8196 8.91108L28.436 10.0889ZM36.6313 3.59277C40.1002 2.02192 43.9912 1.22727 48.321 1.22727V-0.77273C43.7417 -0.77273 39.5646 0.0689804 35.8062 1.77086L36.6313 3.59277ZM48.321 1.22727C52.7005 1.22727 56.5538 2.01207 59.9023 3.55586L60.7397 1.73959C57.0882 0.0561107 52.9415 -0.77273 48.321 -0.77273V1.22727ZM59.9072 3.55809C63.2704 5.0868 65.9015 7.1666 67.8345 9.78683L69.4439 8.59953C67.286 5.6743 64.3717 3.39047 60.7348 1.73736L59.9072 3.55809ZM67.8376 9.79107C69.7811 12.3966 70.8053 15.3461 70.9125 18.6686L72.9114 18.6041C72.7913 14.8812 71.6337 11.5352 69.4408 8.59528L67.8376 9.79107ZM71.9119 17.6364H63.7301V19.6364H71.9119V17.6364Z" fill="#E2139C" fill-opacity="0.42"/>
<defs>
<linearGradient id="paint0_linear_103_24" x1="35" y1="-22" x2="35" y2="94" gradientUnits="userSpaceOnUse">
<stop stop-color="#0BE3BC" stop-opacity="0.73"/>
<stop offset="1" stop-color="#650FD2" stop-opacity="0.97"/>
</linearGradient>
</defs>
</svg>
